<?xml version="1.0" standalone="no"?>
<!DOCTYPE svg PUBLIC "-//W3C//DTD SVG 20010904//EN"
 "http://www.w3.org/TR/2001/REC-SVG-20010904/DTD/svg10.dtd">
<svg version="1.0" xmlns="http://www.w3.org/2000/svg"
 width="145.000000pt" height="145.000000pt" viewBox="0 0 145.000000 145.000000"
 preserveAspectRatio="xMidYMid meet">
<metadata>
Created by potrace 1.11, written by Peter Selinger 2001-2013
</metadata>
<g transform="translate(0.000000,145.000000) scale(0.100000,-0.100000)"
fill="#000000" stroke="none">
<path d="M138 1152 c-32 -3 -38 -7 -38 -26 0 -39 29 -136 64 -209 66 -141 150
-205 280 -214 52 -3 81 0 109 12 72 30 96 67 133 203 2 6 16 12 32 12 27 0 30
-4 41 -53 15 -66 39 -107 87 -143 35 -27 44 -29 123 -29 66 0 97 5 131 21 62
29 125 96 165 179 41 82 80 224 66 238 -6 6 -59 11 -119 12 -136 2 -278 -27
-382 -79 -99 -50 -119 -50 -214 -5 -111 53 -220 79 -341 82 -55 2 -117 1 -137
-1z"/>
<path d="M563 503 c-7 -3 -13 -18 -13 -34 0 -26 -2 -28 -30 -22 -46 9 -70 -18
-70 -79 0 -59 24 -90 67 -82 15 3 31 11 35 17 6 9 8 9 8 0 0 -8 13 -13 30 -13
l31 0 -3 107 c-3 97 -5 106 -23 108 -11 2 -26 1 -32 -2z m-13 -133 c0 -20 -5
-30 -15 -30 -10 0 -15 10 -15 30 0 20 5 30 15 30 10 0 15 -10 15 -30z"/>
<path d="M1186 488 c-8 -12 -13 -25 -10 -30 3 -4 -2 -11 -10 -14 -19 -7 -21
-44 -3 -44 10 0 13 -15 13 -52 -1 -53 -1 -53 32 -56 l32 -3 0 55 c0 45 3 56
19 61 23 7 21 41 -3 37 -9 -2 -16 4 -16 13 0 9 4 14 9 11 13 -8 45 20 37 32
-4 7 -25 12 -46 12 -29 0 -43 -6 -54 -22z"/>
<path d="M6 442 c-3 -3 -6 -38 -6 -79 l0 -73 36 0 36 0 -3 47 c-2 30 1 48 9
51 8 2 12 -12 12 -47 0 -51 0 -51 33 -51 33 0 33 0 33 47 -1 28 4 48 12 51 8
2 12 -11 12 -48 l0 -51 33 3 32 3 2 63 c1 83 -24 110 -77 82 -14 -7 -25 -7
-39 2 -15 9 -25 9 -46 0 -15 -7 -32 -9 -38 -5 -16 10 -34 12 -41 5z"/>
<path d="M290 432 c-29 -23 -36 -92 -12 -121 21 -26 78 -33 120 -15 33 13 38
29 33 94 -4 54 -93 81 -141 42z m71 -39 c0 -5 2 -15 4 -24 4 -22 -10 -43 -24
-35 -12 8 -15 49 -4 59 9 9 23 9 24 0z"/>
<path d="M657 443 c-11 -3 -16 -10 -13 -20 3 -8 6 -17 6 -19 0 -2 18 -4 40 -4
22 0 40 -4 40 -10 0 -5 -13 -7 -29 -5 -40 5 -70 -18 -66 -52 3 -33 29 -53 58
-46 12 3 41 5 65 4 l42 -1 0 60 c0 76 -20 101 -82 99 -24 -1 -51 -3 -61 -6z
m68 -103 c-3 -5 -10 -10 -16 -10 -5 0 -9 5 -9 10 0 6 7 10 16 10 8 0 12 -4 9
-10z"/>
<path d="M857 443 c-36 -9 -53 -75 -32 -125 9 -22 55 -35 101 -30 28 3 34 8
34 28 0 21 -5 24 -34 24 -40 0 -51 12 -36 39 7 13 19 19 37 18 20 -2 27 3 29
21 2 12 -1 22 -9 23 -59 5 -74 6 -90 2z"/>
<path d="M1002 443 c-16 -3 -22 -9 -18 -20 3 -8 6 -17 6 -19 0 -2 18 -4 40 -4
51 0 53 -16 3 -18 -43 -2 -66 -25 -57 -56 9 -29 18 -37 40 -36 10 0 43 1 72 1
l52 0 -3 65 c-2 36 -9 70 -15 76 -11 11 -82 18 -120 11z m68 -103 c0 -5 -7
-10 -15 -10 -8 0 -15 5 -15 10 0 6 7 10 15 10 8 0 15 -4 15 -10z"/>
<path d="M1333 443 c-29 -6 -40 -21 -46 -62 -7 -41 9 -78 36 -87 24 -8 104 -7
116 1 5 3 7 14 4 25 -4 16 -12 20 -32 17 -14 -2 -35 -1 -46 4 l-20 8 20 1 c11
2 26 2 32 1 39 -5 69 53 40 77 -15 13 -75 21 -104 15z m52 -54 c-8 -12 -35
-12 -35 0 0 11 22 20 33 14 4 -2 5 -9 2 -14z"/>
</g>
</svg>
